<svg preserveAspectRatio="none" width="100%" height="100%" overflow="visible" style="display: block;" viewBox="0 0 16 17" fill="none" xmlns="http://www.w3.org/2000/svg">
<path id="Vector" fill-rule="evenodd" clip-rule="evenodd" d="M3 0.75C3 0.335786 3.33579 0 3.75 0C4.16421 0 4.5 0.335786 4.5 0.75V1.5H11.5V0.75C11.5 0.335786 11.8358 0 12.25 0C12.6642 0 13 0.335786 13 0.75V1.5C14.6569 1.5 16 2.84315 16 4.5V13.5C16 15.1569 14.6569 16.5 13 16.5H3C1.34315 16.5 0 15.1569 0 13.5V4.5C0 2.84315 1.34315 1.5 3 1.5V0.75ZM3 3H13C13.8284 3 14.5 3.67157 14.5 4.5V5.5H1.5V4.5C1.5 3.67157 2.17157 3 3 3ZM14.5 7V13.5C14.5 14.3284 13.8284 15 13 15H3C2.17157 15 1.5 14.3284 1.5 13.5V7H14.5Z" fill="var(--fill-0, #7E7C7A)"/>
</svg>
