<svg preserveAspectRatio="none" width="100%" height="100%" overflow="visible" style="display: block;" viewBox="0 0 55 14" fill="none" xmlns="http://www.w3.org/2000/svg">
<g id="Combined Shape">
<path d="M20.3398 1.32605H16.341V0H20.3398V1.32605Z" fill="var(--fill-0, #231F20)"/>
<path d="M22.2083 3.10972H14.4144V1.79824H22.2083V3.10972Z" fill="var(--fill-0, #231F20)"/>
<path fill-rule="evenodd" clip-rule="evenodd" d="M15.9059 8.06348C16.341 8.43941 16.8677 8.68371 17.4854 8.79531V10.182H14.1384V11.6001H21.4403C22.464 11.6001 23.2377 11.3561 23.7582 10.8683V13.3224H25.4836V6.06673H27.2794V4.6184H25.4836V0.228422H23.7582V8.06348C23.7582 9.47616 22.8895 10.182 21.1518 10.182H19.2234V8.79531C19.8319 8.6733 20.3492 8.42927 20.7747 8.06348C21.3733 7.54523 21.6725 6.92501 21.6725 6.20383C21.6725 5.48214 21.3634 4.85984 20.7453 4.33665C20.1264 3.81346 19.3255 3.55174 18.3404 3.55174C17.3556 3.55174 16.553 3.81346 15.9358 4.33665C15.3174 4.85984 15.0088 5.48214 15.0088 6.20383C15.0088 6.92501 15.3085 7.54523 15.9059 8.06348ZM19.507 7.19453C19.1831 7.45886 18.7939 7.59076 18.3404 7.59076C17.8872 7.59076 17.4977 7.45886 17.1746 7.19453C16.8507 6.93073 16.6887 6.60006 16.6887 6.20384C16.6887 5.81749 16.8507 5.49255 17.1746 5.22823C17.4977 4.96442 17.8872 4.832 18.3404 4.832C18.7939 4.832 19.1831 4.96442 19.507 5.22823C19.8299 5.49255 19.9924 5.81749 19.9924 6.20384C19.9924 6.60006 19.8299 6.93073 19.507 7.19453Z" fill="var(--fill-0, #231F20)"/>
<path d="M12.9669 3.582H11.1696V0.228499H9.44493V9.63364H11.1696V5.01471H12.9669V3.582Z" fill="var(--fill-0, #231F20)"/>
<path d="M5.89521 1.32613H1.89749V7.73112e-05H5.89521V1.32613Z" fill="var(--fill-0, #231F20)"/>
<path d="M11.2267 11.8895H4.49151C3.82415 11.8895 3.49134 11.5289 3.49134 10.807V9.55767H1.75209V11.0206C1.75209 12.535 2.52553 13.2915 4.07092 13.2915H11.2267V11.8895Z" fill="var(--fill-0, #231F20)"/>
<path fill-rule="evenodd" clip-rule="evenodd" d="M1.49198 8.08671C2.11038 8.6099 2.91201 8.87136 3.8971 8.87136C4.88219 8.87136 5.68332 8.6099 6.30123 8.08671C6.92013 7.56326 7.22896 6.93575 7.22896 6.20391C7.22896 5.48222 6.92013 4.85991 6.30123 4.33673C5.68332 3.81354 4.88219 3.55156 3.8971 3.55156C2.91201 3.55156 2.11038 3.81354 1.49198 4.33673C0.874073 4.85991 0.565489 5.48222 0.565489 6.20391C0.565489 6.93575 0.874073 7.56326 1.49198 8.08671ZM5.06318 7.19462C4.74026 7.45894 4.35107 7.59084 3.8971 7.59084C3.44263 7.59084 3.05344 7.45894 2.73002 7.19462C2.40635 6.93081 2.24563 6.60014 2.24563 6.20392C2.24563 5.81758 2.40635 5.49237 2.73002 5.22831C3.05344 4.96424 3.44263 4.83182 3.8971 4.83182C4.35107 4.83182 4.74026 4.96424 5.06318 5.22831C5.38685 5.49237 5.54782 5.81758 5.54782 6.20392C5.54782 6.60014 5.38685 6.93081 5.06318 7.19462Z" fill="var(--fill-0, #231F20)"/>
<path d="M7.79419 3.1098H0V1.79832H7.79419V3.1098Z" fill="var(--fill-0, #231F20)"/>
<path d="M38.68 0.228474H40.3755V7.16389H38.68V4.17618H37.5357V6.84415H35.8701V0.228474H37.5357V2.74347H38.68V0.228474Z" fill="var(--fill-0, #231F20)"/>
<path fill-rule="evenodd" clip-rule="evenodd" d="M39.9116 10.5176C39.9116 11.3918 39.5402 12.1483 38.7965 12.7886C38.0524 13.4291 37.1007 13.7491 35.9418 13.7491C34.7923 13.7491 33.8436 13.4291 33.0956 12.7886C32.3466 12.1483 31.9728 11.3918 31.9728 10.5176C31.9728 9.6435 32.3466 8.89423 33.0956 8.26932C33.8436 7.64441 34.7923 7.33196 35.9418 7.33196C37.1007 7.33196 38.0524 7.64441 38.7965 8.26932C39.5402 8.89423 39.9116 9.6435 39.9116 10.5176ZM35.9418 8.70379C35.276 8.70379 34.7352 8.88174 34.3191 9.23686C33.9042 9.59251 33.6969 10.0194 33.6969 10.5176C33.6969 11.0156 33.9019 11.4475 34.3116 11.8135C34.7226 12.1793 35.2661 12.3619 35.9418 12.3619C36.6087 12.3619 37.1495 12.1814 37.5646 11.8211C37.9798 11.46 38.1877 11.026 38.1877 10.5176C38.1877 10.0194 37.9783 9.59251 37.5574 9.23686C37.1371 8.88174 36.5983 8.70379 35.9418 8.70379Z" fill="var(--fill-0, #231F20)"/>
<path d="M32.5385 0.944962C32.5385 2.57072 32.8367 3.73963 33.4358 4.45091C33.9388 5.04044 34.5075 5.39608 35.1449 5.5181V6.95055C34.0542 6.7981 33.103 6.33085 32.292 5.54828C32.0692 5.33495 31.8712 5.08571 31.6973 4.80135C31.5243 5.08571 31.325 5.33495 31.1037 5.54828C30.2926 6.33085 29.3407 6.7981 28.2488 6.95055V5.5181C28.8867 5.39608 29.4566 5.04044 29.9598 4.45091C30.5572 3.73963 30.8569 2.57072 30.8569 0.944962V0.411629H32.5385V0.944962Z" fill="var(--fill-0, #231F20)"/>
<path fill-rule="evenodd" clip-rule="evenodd" d="M52.8849 12.781C53.614 12.1358 53.978 11.381 53.978 10.5176C53.978 9.65383 53.614 8.9069 52.8849 8.27705C52.1554 7.64719 51.2111 7.33188 50.052 7.33188C48.9025 7.33188 47.9611 7.64719 47.228 8.27705C46.4934 8.9069 46.1262 9.65383 46.1262 10.5176C46.1262 11.381 46.4934 12.1358 47.228 12.781C47.9611 13.4262 48.9025 13.7491 50.052 13.7491C51.2111 13.7491 52.1554 13.4262 52.8849 12.781ZM48.4512 9.23705C48.8528 8.88193 49.3864 8.70372 50.052 8.70372C50.7085 8.70372 51.2401 8.88193 51.6458 9.23705C52.0514 9.59243 52.2546 10.0196 52.2546 10.5176C52.2546 11.0262 52.0538 11.4601 51.6533 11.821C51.2525 12.1813 50.7189 12.3619 50.052 12.3619C49.376 12.3619 48.8402 12.1792 48.444 11.8134C48.0489 11.4474 47.8499 11.0158 47.8499 10.5176C47.8499 10.0196 48.0507 9.59243 48.4512 9.23705Z" fill="var(--fill-0, #231F20)"/>
<path fill-rule="evenodd" clip-rule="evenodd" d="M44.88 6.72206H49.8055V5.63978H52.3552V7.28583H54.0801V0.228398H52.3552V1.69155H49.8055V1.44804C49.8055 0.777081 49.4924 0.441991 48.8641 0.441991H42.8525V4.49637C42.8525 5.98007 43.5287 6.72206 44.88 6.72206ZM52.3552 4.2375H49.8055V3.09409H52.3552V4.2375ZM44.5616 1.82918H48.111V5.33487H45.3001C44.8086 5.33487 44.5616 5.05077 44.5616 4.48154V1.82918Z" fill="var(--fill-0, #231F20)"/>
</g>
</svg>
