<svg preserveAspectRatio="none" width="100%" height="100%" overflow="visible" style="display: block;" viewBox="0 0 20 20" fill="none" xmlns="http://www.w3.org/2000/svg">
<path id="Vector" d="M10 11.4142L1.70718 19.707C1.31666 20.0976 0.68349 20.0976 0.292967 19.707C-0.0975555 19.3165 -0.0975545 18.6833 0.29297 18.2928L8.58582 10L0.292895 1.70711C-0.0976304 1.31658 -0.0976317 0.68342 0.292892 0.292895C0.683415 -0.0976304 1.31658 -0.0976317 1.70711 0.292892L10 8.58579L18.293 0.292892C18.6835 -0.0976318 19.3167 -0.0976304 19.7072 0.292895C20.0977 0.68342 20.0977 1.31658 19.7072 1.70711L11.4143 10L19.7071 18.2928C20.0976 18.6833 20.0976 19.3165 19.7071 19.707C19.3166 20.0976 18.6834 20.0976 18.2929 19.707L10 11.4142Z" fill="var(--fill-0, #403F3E)"/>
</svg>
