<svg preserveAspectRatio="none" width="100%" height="100%" overflow="visible" style="display: block;" viewBox="0 0 44 44" fill="none" xmlns="http://www.w3.org/2000/svg">
<path id="icon box" d="M0.544942 12.9507C1.2266 6.30939 6.27919 1.03857 12.9275 0.42812C15.6528 0.177879 18.7374 0 22 0C25.2626 0 28.3472 0.177879 31.0725 0.42812C37.7208 1.03857 42.7734 6.30939 43.4551 12.9507C43.7649 15.9697 44 19.187 44 22C44 24.813 43.7649 28.0303 43.4551 31.0493C42.7734 37.6906 37.7208 42.9614 31.0725 43.5719C28.3472 43.8221 25.2626 44 22 44C18.7374 44 15.6528 43.8221 12.9275 43.5719C6.27919 42.9614 1.2266 37.6906 0.544942 31.0493C0.235085 28.0303 0 24.813 0 22C0 19.187 0.235085 15.9697 0.544942 12.9507Z" fill="var(--fill-0, #225AA5)"/>
</svg>
