<svg width="32" height="32" viewBox="0 0 32 32" fill="none" xmlns="http://www.w3.org/2000/svg">
<path d="M6.00391 6.99951C6.00391 5.34266 7.34705 3.99951 9.00391 3.99951H21.0039C22.6608 3.99951 24.0039 5.34266 24.0039 6.99951V24.9995C24.0039 26.6564 22.6608 27.9995 21.0039 27.9995H9.00391C7.34705 27.9995 6.00391 26.6564 6.00391 24.9995V6.99951Z" fill="#D3DCE8"/>
<path d="M10.0039 8.99951C10.0039 8.44723 10.4516 7.99951 11.0039 7.99951H19.0039C19.5562 7.99951 20.0039 8.44723 20.0039 8.99951C20.0039 9.5518 19.5562 9.99951 19.0039 9.99951H11.0039C10.4516 9.99951 10.0039 9.5518 10.0039 8.99951Z" fill="#AEBED3"/>
<path d="M10.0068 12.999C10.0068 12.4467 10.4546 11.999 11.0068 11.999H19.0068C19.5591 11.999 20.0068 12.4467 20.0068 12.999C20.0068 13.5513 19.5591 13.999 19.0068 13.999H11.0068C10.4546 13.999 10.0068 13.5513 10.0068 12.999Z" fill="#AEBED3"/>
<path d="M10.0068 22.999C10.0068 22.4467 10.4546 21.999 11.0068 21.999H14.0068C14.5591 21.999 15.0068 22.4467 15.0068 22.999C15.0068 23.5513 14.5591 23.999 14.0068 23.999H11.0068C10.4546 23.999 10.0068 23.5513 10.0068 22.999Z" fill="#9DB0C8"/>
<path d="M27 27.3226C27 27.6967 26.6967 28 26.3226 28H21.6774C21.3033 28 21 27.6967 21 27.3226L21 17L27 17L27 27.3226Z" fill="#6396FB"/>
<path d="M27 27.3226C27 27.6967 26.6967 28 26.3226 28L21.6774 28C21.3033 28 21 27.6967 21 27.3226L21 26L27 26V27.3226Z" fill="#1E5AD2"/>
<path d="M23.6018 13.2181C23.8019 12.9272 24.2019 12.9273 24.4018 13.2183L27 17.0002L21 17.0002L23.6018 13.2181Z" fill="#FDEBE0"/>
<path d="M24.4006 13.2183C24.2007 12.9273 23.8007 12.9272 23.6006 13.2181L22.875 14.2728L25.125 14.2728L24.4006 13.2183Z" fill="#566476"/>
</svg>
