<svg preserveAspectRatio="none" width="100%" height="100%" overflow="visible" style="display: block;" viewBox="0 0 44 39" fill="none" xmlns="http://www.w3.org/2000/svg">
<g id="logo">
<path id="Vector" fill-rule="evenodd" clip-rule="evenodd" d="M42.9744 21.5781C42.3256 15.297 35.1741 10.1365 26.9904 10.0775C18.8068 10.0185 12.6875 15.0611 13.3215 21.3422C13.9703 27.6234 21.1218 32.7839 29.3202 32.8429C37.5039 32.9166 43.6232 27.874 42.9744 21.5781ZM15.8872 20.0005C15.3269 14.9284 20.6499 10.859 27.7572 10.9179C34.8645 10.9769 41.087 15.1201 41.6473 20.1922C42.2076 25.2643 36.8993 29.3337 29.7773 29.2747C22.6701 29.2158 16.4475 25.0726 15.8872 20.0005Z" fill="var(--fill-0, #FBB584)"/>
<path id="Vector_2" fill-rule="evenodd" clip-rule="evenodd" d="M15.6136 19.126C10.9246 24.0212 10.8509 31.5556 15.4367 35.9494C20.0225 40.3432 27.5573 39.9451 32.2464 35.05C36.9354 30.1548 37.0091 22.6204 32.4233 18.2119C27.8375 13.818 20.3026 14.2309 15.6136 19.126ZM30.5506 32.9563C26.5252 37.1732 20.052 37.5123 16.1002 33.7377C12.1485 29.9632 12.2074 23.4756 16.2477 19.2587C20.2731 15.0418 26.7611 14.7027 30.6981 18.4773C34.6499 22.2518 34.5761 28.7394 30.5506 32.9563Z" fill="var(--fill-0, #F89B6C)"/>
<path id="Vector_3" fill-rule="evenodd" clip-rule="evenodd" d="M8.29902 6.06074C-0.400733 12.9464 -2.61253 22.9284 3.34458 28.3543C9.31645 33.7803 21.2012 32.586 29.9157 25.7003C38.6155 18.8147 40.8272 8.83269 34.8701 3.40674C28.8983 -2.01921 16.9988 -0.839653 8.29902 6.06074ZM16.0846 3.36251C24.4747 0.221944 32.7615 3.40674 34.6195 10.4693C36.4626 17.5319 31.1543 25.8183 22.7642 28.9588C14.3741 32.0994 6.08722 28.9146 4.24405 21.852C2.40088 14.7747 7.70921 6.50307 16.0846 3.36251Z" fill="var(--fill-0, #F37321)"/>
</g>
</svg>
