<svg preserveAspectRatio="none" width="100%" height="100%" overflow="visible" style="display: block;" viewBox="0 0 16 16" fill="none" xmlns="http://www.w3.org/2000/svg">
<g id="Group 124 Copy 2">
<ellipse id="Oval" cx="12.5386" cy="2.06869" rx="2.22609" ry="2.06869" fill="var(--fill-0, #FFBCBD)"/>
<path id="Line 3 Copy" d="M13.236 1.30686L11.861 2.82966" stroke="var(--stroke-0, #E6898A)" stroke-width="0.230086" stroke-linecap="round" stroke-linejoin="round"/>
<ellipse id="Oval Copy 73" cx="3.40957" cy="2.06869" rx="2.22609" ry="2.06869" fill="var(--fill-0, #FFBCBD)"/>
<path id="Line 3" d="M2.73011 1.30686L4.10511 2.82966" stroke="var(--stroke-0, #E6898A)" stroke-width="0.230086" stroke-linecap="round" stroke-linejoin="round"/>
<path id="Rectangle" fill-rule="evenodd" clip-rule="evenodd" d="M2.26147 11.6686H6.81799L5.36894 15.6785C5.29923 15.8714 5.1161 16 4.91097 16H2.15158C1.93256 16 1.76279 15.8085 1.78899 15.5911L2.26147 11.6686Z" fill="var(--fill-0, #FFBCBD)"/>
<path id="Rectangle Copy 65" fill-rule="evenodd" clip-rule="evenodd" d="M13.7385 11.6686H9.18201L10.6311 15.6785C10.7008 15.8714 10.8839 16 11.089 16H13.8484C14.0674 16 14.2372 15.8085 14.211 15.5911L13.7385 11.6686Z" fill="var(--fill-0, #FFBCBD)"/>
<ellipse id="Oval_2" cx="8" cy="7.70975" rx="8" ry="7.43436" fill="var(--fill-0, #FFD6D6)"/>
<path id="Rectangle Copy 5" fill-rule="evenodd" clip-rule="evenodd" d="M7.90196 10.3609L10.5627 9.30854V9.30854C10.8898 10.0266 10.5642 10.8508 9.83042 11.141V11.141C9.0947 11.432 8.22996 11.0808 7.90196 10.3609V10.3609Z" fill="var(--fill-0, white)"/>
<g id="Group 123">
<ellipse id="Oval Copy 23" cx="8.86977" cy="3.78255" rx="0.347826" ry="0.565658" fill="var(--fill-0, #272B2F)"/>
<ellipse id="Oval Copy 23_2" cx="7.13227" cy="3.78255" rx="0.347826" ry="0.565658" fill="var(--fill-0, #272B2F)"/>
<ellipse id="Oval_3" cx="8.00114" cy="7.03036" rx="3.04348" ry="2.10102" fill="var(--fill-0, #FFAAAB)"/>
<g id="Group 122">
<ellipse id="Oval_4" cx="7.00995" cy="6.7728" rx="0.469565" ry="0.436365" fill="var(--fill-0, #9E5A5B)"/>
<ellipse id="Oval Copy 81" cx="9.0104" cy="6.7728" rx="0.469565" ry="0.436365" fill="var(--fill-0, #9E5A5B)"/>
</g>
</g>
</g>
</svg>
