<svg preserveAspectRatio="none" width="100%" height="100%" overflow="visible" style="display: block;" viewBox="0 0 13 13" fill="none" xmlns="http://www.w3.org/2000/svg">
<path id="Vector" d="M5.93033 7.37721L7.5567 5.75084M12.1038 2.34654L9.76627 11.0863C9.55679 11.7671 9.45197 12.1077 9.27129 12.2206C9.11457 12.3185 8.92054 12.3349 8.74986 12.2641C8.6451 12.2206 8.39331 11.8635 8.07466 11.2262L6.02268 7.69364C5.97212 7.59251 5.94681 7.54215 5.91303 7.49833C5.88306 7.45944 5.84846 7.42441 5.80958 7.39444C5.76676 7.36142 5.71724 7.33667 5.62062 7.28837L2.08128 5.80441C1.44396 5.48575 1.12527 5.32627 1.04361 5.12947C0.972788 4.95878 0.98894 4.76457 1.08686 4.60786C1.19976 4.42715 1.54031 4.32217 2.22134 4.11262L10.9611 1.20368C11.4965 1.03894 11.7643 0.956639 11.9452 1.02303C12.1027 1.08086 12.2269 1.20492 12.2847 1.36245C12.3511 1.5432 12.2687 1.81088 12.1041 2.34575L12.1038 2.34654Z" stroke="var(--stroke-0, white)" stroke-width="1.14286" stroke-linecap="round" stroke-linejoin="round"/>
</svg>
