<svg width="32" height="32" viewBox="0 0 32 32" fill="none" xmlns="http://www.w3.org/2000/svg">
<path d="M7 7C7 4.79086 8.79086 3 11 3H21C23.2091 3 25 4.79086 25 7V25C25 27.2091 23.2091 29 21 29H11C8.79086 29 7 27.2091 7 25V7Z" fill="white"/>
<path d="M11 11.1816C11 10.6294 11.4477 10.1816 12 10.1816H17C17.5523 10.1816 18 10.6294 18 11.1816C18 11.7339 17.5523 12.1816 17 12.1816H12C11.4477 12.1816 11 11.7339 11 11.1816Z" fill="#D3DCE8"/>
<path d="M11 19.1816C11 18.6294 11.4477 18.1816 12 18.1816H17C17.5523 18.1816 18 18.6294 18 19.1816C18 19.7339 17.5523 20.1816 17 20.1816H12C11.4477 20.1816 11 19.7339 11 19.1816Z" fill="#D3DCE8"/>
<path d="M11 15.1816C11 14.6294 11.4477 14.1816 12 14.1816H20C20.5523 14.1816 21 14.6294 21 15.1816C21 15.7339 20.5523 16.1816 20 16.1816H12C11.4477 16.1816 11 15.7339 11 15.1816Z" fill="#D3DCE8"/>
<path fill-rule="evenodd" clip-rule="evenodd" d="M21 5H11C9.89543 5 9 5.89543 9 7V25C9 26.1046 9.89543 27 11 27H21C22.1046 27 23 26.1046 23 25V7C23 5.89543 22.1046 5 21 5ZM11 3C8.79086 3 7 4.79086 7 7V25C7 27.2091 8.79086 29 11 29H21C23.2091 29 25 27.2091 25 25V7C25 4.79086 23.2091 3 21 3H11Z" fill="#566476"/>
<path d="M13 4H19V5.5C19 6.05228 18.5523 6.5 18 6.5H14C13.4477 6.5 13 6.05228 13 5.5V4Z" fill="#566476"/>
</svg>
