<svg preserveAspectRatio="none" width="100%" height="100%" overflow="visible" style="display: block;" viewBox="0 0 20 20" fill="none" xmlns="http://www.w3.org/2000/svg">
<g id="magic icon">
<path id="Star 2" d="M15.9819 1.97879C16.1703 1.65882 16.6551 1.7459 16.7204 2.11144L16.9084 3.16471C16.929 3.27964 16.9987 3.37986 17.0993 3.4391L18.0212 3.98195C18.3412 4.17036 18.2541 4.65515 17.8886 4.72042L16.8353 4.90846C16.7204 4.92898 16.6202 4.99869 16.5609 5.09929L16.0181 6.02126C15.8297 6.34124 15.3449 6.25416 15.2796 5.88861L15.0916 4.83535C15.071 4.72042 15.0013 4.62019 14.9007 4.56096L13.9788 4.0181C13.6588 3.8297 13.7459 3.3449 14.1114 3.27964L15.1647 3.09159C15.2796 3.07107 15.3798 3.00137 15.4391 2.90077L15.9819 1.97879Z" fill="var(--fill-0, #FF8F4C)"/>
<path id="Star 1" d="M6.58125 4.80338C6.66067 3.63021 8.15671 3.18896 8.86009 4.13125L10.8868 6.84634C11.1079 7.14259 11.4474 7.32745 11.8163 7.35242L15.1966 7.58126C16.3698 7.66068 16.8111 9.15672 15.8688 9.8601L13.1537 11.8868C12.8574 12.1079 12.6726 12.4474 12.6476 12.8163L12.4187 16.1966C12.3393 17.3698 10.8433 17.8111 10.1399 16.8688L8.11324 14.1537C7.8921 13.8574 7.55257 13.6726 7.18373 13.6476L3.80337 13.4188C2.6302 13.3393 2.18895 11.8433 3.13124 11.1399L5.84633 9.11325C6.14258 8.89211 6.32744 8.55258 6.35241 8.18374L6.58125 4.80338Z" fill="var(--fill-0, #FA6600)"/>
</g>
</svg>
