<svg width="24" height="24" viewBox="0 0 24 24" fill="none" xmlns="http://www.w3.org/2000/svg">
  <path d="M12 2C11.4477 2 11 2.44772 11 3V5H8C6.89543 5 6 5.89543 6 7V10C6 11.1046 6.89543 12 8 12H11V16C11 19.3137 13.6863 22 17 22C20.3137 22 23 19.3137 23 16V12H20C18.8954 12 18 11.1046 18 10V7C18 5.89543 18.8954 5 20 5H23V3C23 2.44772 22.5523 2 22 2C21.4477 2 21 2.44772 21 3V4H20C19.4477 4 19 4.44772 19 5V10C19 10.5523 19.4477 11 20 11H22V16C22 18.7614 19.7614 21 17 21C14.2386 21 12 18.7614 12 16V11H8C7.44772 11 7 10.5523 7 10V7C7 6.44772 7.44772 6 8 6H11V3C11 2.44772 11.4477 2 12 2Z" fill="currentColor"/>
  <circle cx="8" cy="8" r="1" fill="currentColor"/>
  <circle cx="16" cy="16" r="1" fill="currentColor"/>
  <path d="M9 8L15 16" stroke="currentColor" stroke-width="1.5" stroke-linecap="round"/>
</svg>