<svg preserveAspectRatio="none" width="100%" height="100%" overflow="visible" style="display: block;" viewBox="0 0 16 16" fill="none" xmlns="http://www.w3.org/2000/svg">
<path id="Vector" d="M7.16291 8.97152L9.19588 6.93855M14.8797 2.68318L11.9578 13.6079C11.696 14.4589 11.565 14.8846 11.3391 15.0257C11.1432 15.1481 10.9007 15.1686 10.6873 15.0801C10.5564 15.0257 10.2416 14.5793 9.84332 13.7827L7.27836 9.36705C7.21515 9.24063 7.18351 9.17768 7.14129 9.12291C7.10382 9.0743 7.06058 9.03051 7.01197 8.99304C6.95844 8.95178 6.89655 8.92084 6.77577 8.86046L2.3516 7.00551C1.55495 6.60719 1.15659 6.40784 1.05451 6.16183C0.965986 5.94848 0.986175 5.70571 1.10857 5.50982C1.24971 5.28394 1.67539 5.15271 2.52668 4.89078L13.4514 1.25461C14.1206 1.04868 14.4554 0.945799 14.6815 1.02879C14.8784 1.10107 15.0336 1.25615 15.1059 1.45306C15.1888 1.679 15.0859 2.0136 14.8802 2.68219L14.8797 2.68318Z" stroke="var(--stroke-0, white)" stroke-width="1.42857" stroke-linecap="round" stroke-linejoin="round"/>
</svg>
