<svg preserveAspectRatio="none" width="100%" height="100%" overflow="visible" style="display: block;" viewBox="0 0 18 18" fill="none" xmlns="http://www.w3.org/2000/svg">
<path id="Vector" fill-rule="evenodd" clip-rule="evenodd" d="M9 18C13.9706 18 18 13.9706 18 9C18 4.02944 13.9706 0 9 0C4.02944 0 0 4.02944 0 9C0 13.9706 4.02944 18 9 18ZM13.3852 7.35455C13.6781 7.06166 13.6781 6.58678 13.3852 6.29389C13.0923 6.001 12.6175 6.001 12.3246 6.29389L8.10766 10.5108L5.67096 8.07411C5.37806 7.78122 4.90319 7.78122 4.61029 8.07411C4.3174 8.367 4.3174 8.84188 4.61029 9.13477L7.57733 12.1018C7.71798 12.2425 7.90875 12.3215 8.10766 12.3215C8.30657 12.3215 8.49734 12.2425 8.63799 12.1018L13.3852 7.35455Z" fill="var(--fill-0, #FA6600)"/>
</svg>
